<svg viewBox="0 0 64 64" xmlns="http://www.w3.org/2000/svg" role="img" aria-label="Terrane">
  <defs>
    <linearGradient id="t" x1="0" y1="0" x2="1" y2="1"><stop offset="0" stop-color="#8df3d6"/><stop offset="0.5" stop-color="#27a6a4"/><stop offset="1" stop-color="#0c5563"/></linearGradient>
    <linearGradient id="r" x1="0" y1="0" x2="0" y2="1"><stop offset="0" stop-color="#c6ffec"/><stop offset="1" stop-color="#2bb0a6"/></linearGradient>
    <radialGradient id="o" cx="0.36" cy="0.30" r="0.9"><stop offset="0" stop-color="#23606a"/><stop offset="0.4" stop-color="#0c2e34"/><stop offset="1" stop-color="#01080a"/></radialGradient>
    <radialGradient id="g" cx="0.5" cy="0.5" r="0.5"><stop offset="0" stop-color="#fff" stop-opacity="0.95"/><stop offset="1" stop-color="#fff" stop-opacity="0"/></radialGradient>
  </defs>
  <path d="M 10 15 L 54 15 L 32 54 Z" fill="none" stroke="url(#t)" stroke-width="2" stroke-linejoin="round"/>
  <line x1="32.0" y1="20.0" x2="32.0" y2="12.0" stroke="url(#r)" stroke-width="0.8" stroke-linecap="round" opacity="0.90"/>
    <line x1="33.6" y1="20.1" x2="34.8" y2="12.2" stroke="url(#r)" stroke-width="0.45" stroke-linecap="round" opacity="0.50"/>
    <line x1="35.1" y1="20.5" x2="37.6" y2="12.9" stroke="url(#r)" stroke-width="0.8" stroke-linecap="round" opacity="0.90"/>
    <line x1="36.5" y1="21.1" x2="40.2" y2="14.0" stroke="url(#r)" stroke-width="0.45" stroke-linecap="round" opacity="0.50"/>
    <line x1="37.9" y1="21.9" x2="42.6" y2="15.4" stroke="url(#r)" stroke-width="0.8" stroke-linecap="round" opacity="0.90"/>
    <line x1="39.1" y1="22.9" x2="44.7" y2="17.3" stroke="url(#r)" stroke-width="0.45" stroke-linecap="round" opacity="0.50"/>
    <line x1="40.1" y1="24.1" x2="46.6" y2="19.4" stroke="url(#r)" stroke-width="0.8" stroke-linecap="round" opacity="0.90"/>
    <line x1="40.9" y1="25.5" x2="48.1" y2="21.8" stroke="url(#r)" stroke-width="0.45" stroke-linecap="round" opacity="0.50"/>
    <line x1="41.5" y1="26.9" x2="50.4" y2="24.0" stroke="url(#r)" stroke-width="0.8" stroke-linecap="round" opacity="0.90"/>
    <line x1="41.9" y1="28.4" x2="52.9" y2="26.7" stroke="url(#r)" stroke-width="0.45" stroke-linecap="round" opacity="0.50"/>
    <line x1="42.0" y1="30.0" x2="54.0" y2="30.0" stroke="url(#r)" stroke-width="0.8" stroke-linecap="round" opacity="0.90"/>
    <line x1="41.9" y1="31.6" x2="52.9" y2="33.3" stroke="url(#r)" stroke-width="0.45" stroke-linecap="round" opacity="0.50"/>
    <line x1="41.5" y1="33.1" x2="50.4" y2="36.0" stroke="url(#r)" stroke-width="0.8" stroke-linecap="round" opacity="0.90"/>
    <line x1="40.9" y1="34.5" x2="48.1" y2="38.2" stroke="url(#r)" stroke-width="0.45" stroke-linecap="round" opacity="0.50"/>
    <line x1="40.1" y1="35.9" x2="46.6" y2="40.6" stroke="url(#r)" stroke-width="0.8" stroke-linecap="round" opacity="0.90"/>
    <line x1="39.1" y1="37.1" x2="44.7" y2="42.7" stroke="url(#r)" stroke-width="0.45" stroke-linecap="round" opacity="0.50"/>
    <line x1="37.9" y1="38.1" x2="42.6" y2="44.6" stroke="url(#r)" stroke-width="0.8" stroke-linecap="round" opacity="0.90"/>
    <line x1="36.5" y1="38.9" x2="40.2" y2="46.0" stroke="url(#r)" stroke-width="0.45" stroke-linecap="round" opacity="0.50"/>
    <line x1="35.1" y1="39.5" x2="37.6" y2="47.1" stroke="url(#r)" stroke-width="0.8" stroke-linecap="round" opacity="0.90"/>
    <line x1="33.6" y1="39.9" x2="34.8" y2="47.8" stroke="url(#r)" stroke-width="0.45" stroke-linecap="round" opacity="0.50"/>
    <line x1="32.0" y1="40.0" x2="32.0" y2="48.0" stroke="url(#r)" stroke-width="0.8" stroke-linecap="round" opacity="0.90"/>
    <line x1="30.4" y1="39.9" x2="29.1" y2="48.6" stroke="url(#r)" stroke-width="0.45" stroke-linecap="round" opacity="0.50"/>
    <line x1="28.9" y1="39.5" x2="25.6" y2="49.6" stroke="url(#r)" stroke-width="0.8" stroke-linecap="round" opacity="0.90"/>
    <line x1="27.5" y1="38.9" x2="22.1" y2="49.5" stroke="url(#r)" stroke-width="0.45" stroke-linecap="round" opacity="0.50"/>
    <line x1="26.1" y1="38.1" x2="19.3" y2="47.5" stroke="url(#r)" stroke-width="0.8" stroke-linecap="round" opacity="0.90"/>
    <line x1="24.9" y1="37.1" x2="17.9" y2="44.1" stroke="url(#r)" stroke-width="0.45" stroke-linecap="round" opacity="0.50"/>
    <line x1="23.9" y1="35.9" x2="17.1" y2="40.8" stroke="url(#r)" stroke-width="0.8" stroke-linecap="round" opacity="0.90"/>
    <line x1="23.1" y1="34.5" x2="16.0" y2="38.2" stroke="url(#r)" stroke-width="0.45" stroke-linecap="round" opacity="0.50"/>
    <line x1="22.5" y1="33.1" x2="14.9" y2="35.6" stroke="url(#r)" stroke-width="0.8" stroke-linecap="round" opacity="0.90"/>
    <line x1="22.1" y1="31.6" x2="14.2" y2="32.8" stroke="url(#r)" stroke-width="0.45" stroke-linecap="round" opacity="0.50"/>
    <line x1="22.0" y1="30.0" x2="14.0" y2="30.0" stroke="url(#r)" stroke-width="0.8" stroke-linecap="round" opacity="0.90"/>
    <line x1="22.1" y1="28.4" x2="14.2" y2="27.2" stroke="url(#r)" stroke-width="0.45" stroke-linecap="round" opacity="0.50"/>
    <line x1="22.5" y1="26.9" x2="14.9" y2="24.4" stroke="url(#r)" stroke-width="0.8" stroke-linecap="round" opacity="0.90"/>
    <line x1="23.1" y1="25.5" x2="16.0" y2="21.8" stroke="url(#r)" stroke-width="0.45" stroke-linecap="round" opacity="0.50"/>
    <line x1="23.9" y1="24.1" x2="17.1" y2="19.2" stroke="url(#r)" stroke-width="0.8" stroke-linecap="round" opacity="0.90"/>
    <line x1="24.9" y1="22.9" x2="17.9" y2="15.9" stroke="url(#r)" stroke-width="0.45" stroke-linecap="round" opacity="0.50"/>
    <line x1="26.1" y1="21.9" x2="19.3" y2="12.5" stroke="url(#r)" stroke-width="0.8" stroke-linecap="round" opacity="0.90"/>
    <line x1="27.5" y1="21.1" x2="22.1" y2="10.5" stroke="url(#r)" stroke-width="0.45" stroke-linecap="round" opacity="0.50"/>
    <line x1="28.9" y1="20.5" x2="25.6" y2="10.4" stroke="url(#r)" stroke-width="0.8" stroke-linecap="round" opacity="0.90"/>
    <line x1="30.4" y1="20.1" x2="29.1" y2="11.4" stroke="url(#r)" stroke-width="0.45" stroke-linecap="round" opacity="0.50"/>
  <circle cx="32" cy="30" r="13.5" fill="url(#o)" stroke="#43e6c6" stroke-width="0.6" stroke-opacity="0.55"/>
  <ellipse cx="28.5" cy="25" rx="5.5" ry="3.2" fill="url(#g)"/>
  <text x="32" y="35.5" text-anchor="middle" font-family="Geist, system-ui, sans-serif" font-size="16" font-weight="700" fill="#dffff4">T</text>
</svg>